<?xml version="1.0" encoding="UTF-8"?>
<svg id="Ebene_2" data-name="Ebene 2" xmlns="http://www.w3.org/2000/svg" xmlns:xlink="http://www.w3.org/1999/xlink" viewBox="0 0 180.2 192.29">
  <defs>
    <style>
      .cls-1 {
        fill: url(#Unbenannter_Verlauf_38);
      }
    </style>
    <linearGradient id="Unbenannter_Verlauf_38" data-name="Unbenannter Verlauf 38" x1="58.68" y1=".85" x2="101.61" y2="188.68" gradientUnits="userSpaceOnUse">
      <stop offset="0" stop-color="#2d1e5d"/>
      <stop offset="1" stop-color="#1b537b"/>
    </linearGradient>
  </defs>
  <g id="Ebene_1-2" data-name="Ebene 1">
    <g id="Hype_Beyond_Dark_Mode" data-name="Hype &amp;amp; Beyond Dark Mode">
      <g id="Hype_" data-name="Hype&amp;amp;">
        <path class="cls-1" d="M0,136.8c0-11.17,2.51-20.56,7.55-28.16,5.03-7.6,11.67-14.05,19.92-19.37-4.22-4.58-7.69-9.89-10.44-15.93-2.75-6.04-4.12-12.64-4.12-19.78,0-7.69,1.46-14.83,4.4-21.43,2.93-6.59,6.96-12.27,12.09-17.03,5.12-4.76,11.17-8.47,18.13-11.12,6.96-2.65,14.46-3.98,22.53-3.98,8.97,0,17.12,1.37,24.45,4.12,7.32,2.75,13.6,6.55,18.82,11.4,5.22,4.85,9.2,10.62,11.95,17.31,2.75,6.69,4.12,13.97,4.12,21.84,0,9.34-2.47,17.49-7.42,24.45-4.94,6.96-10.9,13.01-17.86,18.13l25,20.88c2.2-2.2,4.35-4.49,6.45-6.87,2.1-2.38,4.71-5.58,7.83-9.61l36.81,31.32c-4.03,5.49-8.34,10.71-12.91,15.66-4.58,4.94-9.52,9.61-14.83,14.01-4.58,3.67-9.66,7.28-15.25,10.85-5.59,3.57-11.72,6.73-18.4,9.48-6.69,2.75-13.87,4.99-21.56,6.73-7.69,1.74-15.84,2.61-24.45,2.61-12.64,0-23.53-1.42-32.69-4.26-9.16-2.84-16.71-6.73-22.66-11.67-5.95-4.94-10.35-10.8-13.19-17.58-2.84-6.77-4.26-14.1-4.26-21.98ZM115.65,129.93l-42.03-35.16c10.07-5.49,18.13-11.4,24.17-17.72,6.04-6.32,9.06-14.05,9.06-23.21,0-4.76-.96-9.15-2.88-13.19-1.92-4.03-4.53-7.46-7.83-10.3-3.3-2.84-7.19-5.03-11.67-6.59-4.49-1.55-9.3-2.34-14.42-2.34-4.4,0-8.7.78-12.91,2.34-4.22,1.56-7.97,3.76-11.26,6.59-3.3,2.84-5.91,6.28-7.83,10.3-1.92,4.03-2.88,8.52-2.88,13.46,0,6.78,1.83,12.77,5.49,17.99,3.66,5.22,8.6,10.4,14.83,15.52l6.87,5.77-6.59,3.3c-4.03,2.02-7.83,4.26-11.4,6.73-3.57,2.47-6.64,5.22-9.2,8.24-2.57,3.02-4.63,6.41-6.18,10.16-1.56,3.76-2.34,7.92-2.34,12.5,0,6.04,1.28,11.36,3.85,15.93,2.56,4.58,5.95,8.34,10.17,11.26,4.21,2.93,9.06,5.13,14.56,6.59,5.49,1.47,11.17,2.2,17.03,2.2,12.64,0,23.9-2.01,33.79-6.04,9.89-4.03,18.31-8.52,25.27-13.46,8.06-5.67,15.29-12.27,21.7-19.78l-5.22-3.57c-2.93,3.48-6.04,6.78-9.34,9.89-3.3,3.12-6.78,5.95-10.44,8.52-6.41,4.58-14.28,8.75-23.62,12.5-9.34,3.76-20.05,5.63-32.14,5.63-4.4,0-8.88-.5-13.46-1.51-4.58-1-8.75-2.65-12.5-4.94-3.76-2.29-6.87-5.36-9.34-9.2-2.47-3.85-3.71-8.52-3.71-14.01,0-7.87,2.29-14.24,6.87-19.09,4.57-4.85,10.99-9.29,19.23-13.32l8.24-4.12,42.85,35.71,5.22-3.57ZM99.71,53.84c0,8.79-2.75,15.8-8.24,21.01-5.49,5.22-13.19,10.4-23.07,15.52l-8.52-7.14c-7.33-6.04-12.09-11.31-14.28-15.79-2.2-4.49-3.3-8.83-3.3-13.05,0-7.69,2.56-14.01,7.69-18.95,5.12-4.94,11.81-7.42,20.05-7.42,3.66,0,7.28.55,10.85,1.65,3.57,1.1,6.73,2.75,9.48,4.94s4.99,4.9,6.73,8.1c1.74,3.21,2.61,6.91,2.61,11.12ZM74.17,145.86c2.75,0,5.54-.23,8.38-.69,2.84-.46,5.54-1.14,8.1-2.06l-26.65-22.53c-4.58,3.48-6.87,7.6-6.87,12.36,0,4.4,1.74,7.65,5.22,9.75,3.48,2.11,7.42,3.16,11.81,3.16ZM60.71,52.74c0,2.57.59,4.99,1.79,7.28,1.19,2.29,3.52,4.99,7,8.1,4.21-2.56,7.23-4.99,9.06-7.28,1.83-2.29,2.75-4.99,2.75-8.1,0-6.77-3.39-10.16-10.17-10.16-3.11,0-5.63.96-7.55,2.88-1.92,1.92-2.88,4.35-2.88,7.28Z"/>
      </g>
    </g>
  </g>
</svg>