<?xml version="1.0" encoding="UTF-8"?>
<svg id="Ebene_2" data-name="Ebene 2" xmlns="http://www.w3.org/2000/svg" viewBox="0 0 913.35 350.29">
  <defs>
    <style>
      .cls-1 {
        fill: #fff;
      }
    </style>
  </defs>
  <g id="Ebene_1-2" data-name="Ebene 1">
    <g id="Hype_Beyond_Light_Mode" data-name="Hype &amp;amp; Beyond Light Mode">
      <g id="Beyond">
        <path class="cls-1" d="M120.13,286.46c-2.65-4.87-6.32-9-11.04-12.41-3.07-2.21-6.5-4.03-10.26-5.44,4.84-2.16,8.72-5.31,11.61-9.47,3.96-5.7,5.94-12.94,5.94-21.7,0-7.1-1.92-13.29-5.73-18.56-3.83-5.28-9.39-9.39-16.7-12.31-7.29-2.92-16.22-4.37-26.8-4.37H0v145.99h69.25c7.63,0,14.76-.89,21.37-2.71,6.61-1.8,12.44-4.58,17.52-8.33,5.07-3.75,9-8.45,11.77-14.08,2.79-5.64,4.17-12.28,4.17-19.93,0-6.25-1.32-11.81-3.96-16.68ZM41.71,237.66h17.31c5.02,0,8.59,1.01,10.75,3.02,2.14,2.01,3.23,4.63,3.23,7.83,0,2.35-.45,4.34-1.36,5.94-.89,1.59-2.35,2.81-4.37,3.64-2.03.84-4.63,1.25-7.83,1.25h-17.74v-21.68ZM78.83,307.22c-.97,1.87-2.35,3.26-4.16,4.17-1.82.89-4.04,1.35-6.68,1.35h-26.29v-23.35h25.24c2.92,0,5.36.45,7.31,1.35,1.95.91,3.44,2.16,4.48,3.75,1.04,1.61,1.56,3.59,1.56,5.94,0,2.65-.49,4.9-1.46,6.79Z"/>
        <polygon class="cls-1" points="261.97 311.7 261.97 348.2 149.12 348.2 149.12 202.2 258.22 202.2 258.22 238.7 192.31 238.7 192.31 257.26 250.5 257.26 250.5 291.47 192.31 291.47 192.31 311.7 261.97 311.7"/>
        <polygon class="cls-1" points="424.04 202.2 370.64 283.2 370.64 348.2 325.16 348.2 325.16 283.57 267.6 202.2 317.66 202.2 347.77 245.42 375.23 202.2 424.04 202.2"/>
        <path class="cls-1" d="M499.75,350.29c-11.54,0-22.11-1.88-31.7-5.63-9.59-3.75-17.94-9.04-25.03-15.85-7.09-6.81-12.55-14.88-16.37-24.19-3.83-9.31-5.74-19.47-5.74-30.45s1.91-21.31,5.74-30.56c3.82-9.25,9.28-17.28,16.37-24.09,7.09-6.81,15.44-12.1,25.03-15.85,9.6-3.75,20.09-5.63,31.5-5.63s22.07,1.88,31.6,5.63c9.52,3.75,17.83,9.04,24.93,15.85,7.09,6.81,12.55,14.84,16.37,24.09,3.82,9.25,5.74,19.37,5.74,30.35s-1.91,21.35-5.74,30.66c-3.83,9.32-9.28,17.38-16.37,24.19-7.09,6.82-15.4,12.1-24.93,15.85-9.53,3.75-19.99,5.63-31.39,5.63ZM499.54,308.57c4.72,0,9.07-.83,13.04-2.5,3.96-1.67,7.44-4.07,10.43-7.2,2.99-3.13,5.28-6.78,6.88-10.95,1.6-4.17,2.4-8.76,2.4-13.77s-.8-9.59-2.4-13.77c-1.6-4.17-3.89-7.82-6.88-10.95-2.99-3.13-6.47-5.53-10.43-7.2-3.96-1.67-8.31-2.5-13.04-2.5s-9.07.84-13.04,2.5c-3.96,1.67-7.44,4.07-10.43,7.2-2.99,3.13-5.29,6.78-6.88,10.95-1.6,4.17-2.4,8.76-2.4,13.77s.8,9.59,2.4,13.77c1.6,4.17,3.89,7.82,6.88,10.95,2.99,3.13,6.47,5.53,10.43,7.2,3.96,1.67,8.31,2.5,13.04,2.5Z"/>
        <path class="cls-1" d="M740.23,202.2v145.99h-40.67l-54.41-75.08c.07.65.13,1.27.18,1.88.28,3.2.52,6.35.73,9.48.21,3.13.34,6.61.42,10.43.07,3.83.1,8.32.1,13.45v39.84h-43.38v-145.99h40.25l56.06,77.47c-.1-.75-.18-1.48-.26-2.18-.49-4.17-.91-8.04-1.25-11.58-.36-3.54-.63-7.05-.84-10.54-.21-3.46-.31-7.29-.31-11.47v-41.71h43.38Z"/>
        <path class="cls-1" d="M907.82,245.8c-3.69-8.9-8.93-16.58-15.75-23.05-6.8-6.48-14.8-11.51-23.97-15.14-9.18-3.61-19.26-5.41-30.26-5.41h-64.23v145.99h64.23c11,0,21.08-1.8,30.26-5.42,9.18-3.61,17.17-8.66,23.97-15.12,6.82-6.46,12.07-14.18,15.75-23.14,3.69-8.97,5.52-18.74,5.52-29.31s-1.84-20.5-5.52-29.4ZM865.6,289.08c-1.54,4.24-3.69,7.89-6.48,10.95-2.78,3.05-6.04,5.46-9.79,7.19-3.75,1.74-7.93,2.6-12.52,2.6h-18.14v-69.24h18.14c4.6,0,8.77.86,12.52,2.6,3.75,1.74,7.02,4.14,9.79,7.19,2.79,3.07,4.94,6.71,6.48,10.95,1.53,4.26,2.29,8.87,2.29,13.87s-.76,9.63-2.29,13.89Z"/>
      </g>
      <path class="cls-1" d="M72.58,4.54h56v59h31V4.54h56v174h-56v-65h-31v65h-56V4.54ZM105.58,157.54v-66h77v66h7V24.54h-7v61h-77V24.54h-7v133h7Z"/>
      <path class="cls-1" d="M279.58,103.67L225.15,4.54h62.31l20.24,36.78,19.98-36.78h62.31l-54.42,99.13v74.87h-56v-74.87ZM311.58,157.54v-62.7l37.85-70.3h-8.04l-33.19,62.17-33.44-62.17h-7.78l37.59,70.3v62.7h7Z"/>
      <path class="cls-1" d="M536.02,70.8c0,12-2.1,22.22-6.31,30.65-4.21,8.44-9.95,15.26-17.22,20.48-7.28,5.22-15.77,9.05-25.5,11.48-9.73,2.44-20.2,3.65-31.42,3.65v41.48h-56V4.54h56c11.21,0,21.69,1.22,31.42,3.65,9.73,2.44,18.23,6.26,25.5,11.48,7.27,5.22,13.01,12.04,17.22,20.48,4.21,8.44,6.31,18.65,6.31,30.65ZM509.98,70.04c0-7.84-1.35-14.64-4.05-20.4-2.7-5.75-6.5-10.46-11.37-14.12-4.88-3.66-10.68-6.41-17.39-8.24-6.71-1.83-13.99-2.75-21.84-2.75h-29.75v133h7v-42h22.75c7.84,0,15.12-.92,21.84-2.75,6.71-1.83,12.51-4.58,17.39-8.24,4.88-3.66,8.67-8.37,11.37-14.12,2.7-5.75,4.05-12.55,4.05-20.4ZM502.26,70.54c0,7.45-1.3,13.69-3.9,18.72-2.6,5.03-6.07,9.02-10.4,11.96-4.33,2.95-9.32,5.07-14.95,6.37-5.63,1.3-11.57,1.95-17.81,1.95h-22.62V31.54h22.62c6.24,0,12.18.65,17.81,1.95,5.63,1.3,10.62,3.42,14.95,6.37,4.33,2.95,7.8,6.93,10.4,11.96,2.6,5.03,3.9,11.27,3.9,18.72ZM455.58,90.54h2.37c7.38,0,12.69-1.71,15.94-5.14,3.25-3.43,4.88-8.21,4.88-14.36s-1.63-10.94-4.88-14.36c-3.25-3.43-8.56-5.14-15.94-5.14h-2.37v39Z"/>
      <path class="cls-1" d="M549.58,4.54h103v46h-47v19h46v43h-46v20h49v46h-105V4.54ZM634.58,157.54v-6h-52v-58h50v-6h-50V31.54h52v-7h-59v133h59Z"/>
      <path class="cls-1" d="M670.53,130.15c0-10.63,2.39-19.56,7.19-26.79,4.79-7.23,11.11-13.37,18.95-18.43-4.01-4.35-7.32-9.41-9.93-15.16-2.61-5.75-3.92-12.02-3.92-18.82,0-7.32,1.39-14.11,4.18-20.39,2.79-6.27,6.62-11.67,11.5-16.2,4.88-4.53,10.63-8.06,17.25-10.58,6.62-2.52,13.76-3.79,21.43-3.79,8.53,0,16.29,1.31,23.26,3.92,6.97,2.61,12.94,6.23,17.9,10.85,4.97,4.62,8.75,10.11,11.37,16.47,2.61,6.36,3.92,13.29,3.92,20.78,0,8.89-2.35,16.64-7.06,23.26-4.7,6.62-10.37,12.37-16.99,17.25l23.78,19.86c2.09-2.09,4.14-4.27,6.14-6.53,2-2.26,4.48-5.31,7.45-9.15l35.02,29.79c-3.84,5.23-7.93,10.19-12.28,14.9-4.36,4.7-9.06,9.15-14.11,13.33-4.36,3.49-9.19,6.93-14.5,10.32-5.32,3.4-11.15,6.4-17.51,9.02-6.36,2.61-13.2,4.75-20.52,6.4-7.32,1.65-15.07,2.48-23.26,2.48-12.02,0-22.39-1.35-31.1-4.05-8.72-2.7-15.9-6.4-21.56-11.11-5.66-4.7-9.85-10.28-12.54-16.73-2.7-6.44-4.05-13.42-4.05-20.91ZM780.56,123.62l-39.99-33.45c9.58-5.23,17.25-10.85,23-16.86,5.75-6.01,8.62-13.37,8.62-22.08,0-4.53-.91-8.71-2.74-12.54-1.83-3.83-4.31-7.1-7.45-9.8-3.14-2.7-6.84-4.79-11.11-6.27-4.27-1.48-8.85-2.22-13.72-2.22-4.18,0-8.28.74-12.28,2.22-4.01,1.48-7.58,3.57-10.72,6.27-3.14,2.7-5.62,5.97-7.45,9.8-1.83,3.83-2.74,8.1-2.74,12.81,0,6.45,1.74,12.15,5.23,17.12,3.48,4.97,8.19,9.89,14.11,14.77l6.53,5.49-6.27,3.14c-3.84,1.92-7.45,4.05-10.85,6.4-3.4,2.35-6.32,4.97-8.76,7.84-2.44,2.88-4.4,6.1-5.88,9.67-1.48,3.57-2.22,7.54-2.22,11.89,0,5.75,1.22,10.8,3.66,15.16,2.44,4.36,5.66,7.93,9.67,10.72,4,2.79,8.62,4.88,13.85,6.27,5.23,1.4,10.63,2.09,16.2,2.09,12.02,0,22.74-1.92,32.15-5.75,9.41-3.83,17.42-8.1,24.05-12.81,7.67-5.4,14.55-11.67,20.65-18.82l-4.97-3.4c-2.79,3.31-5.75,6.45-8.89,9.41-3.14,2.97-6.45,5.66-9.93,8.1-6.1,4.36-13.59,8.32-22.48,11.89-8.89,3.57-19.08,5.36-30.58,5.36-4.18,0-8.45-.48-12.81-1.44-4.36-.96-8.32-2.52-11.89-4.7-3.57-2.18-6.53-5.1-8.89-8.76-2.35-3.66-3.53-8.1-3.53-13.33,0-7.49,2.18-13.55,6.53-18.16,4.35-4.62,10.45-8.84,18.29-12.68l7.84-3.92,40.77,33.98,4.97-3.4ZM765.4,51.23c0,8.36-2.61,15.03-7.84,19.99-5.23,4.97-12.54,9.89-21.95,14.77l-8.1-6.8c-6.97-5.75-11.5-10.76-13.59-15.03-2.09-4.27-3.14-8.4-3.14-12.41,0-7.32,2.44-13.33,7.32-18.03,4.88-4.7,11.24-7.06,19.08-7.06,3.48,0,6.92.52,10.32,1.57,3.4,1.05,6.4,2.61,9.02,4.7,2.61,2.09,4.74,4.66,6.4,7.71,1.65,3.05,2.48,6.58,2.48,10.58ZM741.09,138.78c2.61,0,5.27-.22,7.97-.65,2.7-.43,5.27-1.09,7.71-1.96l-25.35-21.43c-4.36,3.31-6.53,7.23-6.53,11.76,0,4.18,1.65,7.28,4.97,9.28,3.31,2.01,7.06,3.01,11.24,3.01ZM728.29,50.18c0,2.44.56,4.75,1.7,6.93,1.13,2.18,3.35,4.75,6.66,7.71,4.01-2.44,6.88-4.75,8.62-6.93,1.74-2.18,2.61-4.75,2.61-7.71,0-6.44-3.23-9.67-9.67-9.67-2.96,0-5.36.91-7.19,2.74-1.83,1.83-2.74,4.14-2.74,6.93Z"/>
    </g>
  </g>
</svg>