<?xml version="1.0" encoding="UTF-8"?>
<svg id="Ebene_2" data-name="Ebene 2" xmlns="http://www.w3.org/2000/svg" xmlns:xlink="http://www.w3.org/1999/xlink" viewBox="0 0 939.15 357.11">
  <defs>
    <style>
      .cls-1 {
        fill: url(#Unbenannter_Verlauf_38-11);
      }

      .cls-2 {
        fill: url(#Unbenannter_Verlauf_38-10);
      }

      .cls-3 {
        fill: url(#Unbenannter_Verlauf_38-7);
      }

      .cls-4 {
        fill: url(#Unbenannter_Verlauf_38-6);
      }

      .cls-5 {
        fill: url(#Unbenannter_Verlauf_38-9);
      }

      .cls-6 {
        fill: url(#Unbenannter_Verlauf_38-8);
      }

      .cls-7 {
        fill: url(#Unbenannter_Verlauf_38-3);
      }

      .cls-8 {
        fill: url(#Unbenannter_Verlauf_38-2);
      }

      .cls-9 {
        fill: url(#Unbenannter_Verlauf_38-5);
      }

      .cls-10 {
        fill: url(#Unbenannter_Verlauf_38-4);
      }

      .cls-11 {
        fill: url(#Unbenannter_Verlauf_38);
      }
    </style>
    <linearGradient id="Unbenannter_Verlauf_38" data-name="Unbenannter Verlauf 38" x1="37.08" y1="196.37" x2="73.72" y2="356.69" gradientUnits="userSpaceOnUse">
      <stop offset="0" stop-color="#2d1e5d"/>
      <stop offset="1" stop-color="#1b537b"/>
    </linearGradient>
    <linearGradient id="Unbenannter_Verlauf_38-2" data-name="Unbenannter Verlauf 38" x1="190.34" y1="196.39" x2="228.71" y2="364.25" xlink:href="#Unbenannter_Verlauf_38"/>
    <linearGradient id="Unbenannter_Verlauf_38-3" data-name="Unbenannter Verlauf 38" x1="351.6" y1="187.37" x2="389.47" y2="353.05" xlink:href="#Unbenannter_Verlauf_38"/>
    <linearGradient id="Unbenannter_Verlauf_38-4" data-name="Unbenannter Verlauf 38" x1="496.12" y1="202.04" x2="531.23" y2="355.64" xlink:href="#Unbenannter_Verlauf_38"/>
    <linearGradient id="Unbenannter_Verlauf_38-5" data-name="Unbenannter Verlauf 38" x1="670.9" y1="193.27" x2="710.5" y2="366.53" xlink:href="#Unbenannter_Verlauf_38"/>
    <linearGradient id="Unbenannter_Verlauf_38-6" data-name="Unbenannter Verlauf 38" x1="840.36" y1="194.58" x2="876.77" y2="353.89" xlink:href="#Unbenannter_Verlauf_38"/>
    <linearGradient id="Unbenannter_Verlauf_38-7" data-name="Unbenannter Verlauf 38" x1="127.55" y1="-7.35" x2="174.8" y2="199.36" xlink:href="#Unbenannter_Verlauf_38"/>
    <linearGradient id="Unbenannter_Verlauf_38-8" data-name="Unbenannter Verlauf 38" x1="312.13" y1="-14.31" x2="357.66" y2="184.88" xlink:href="#Unbenannter_Verlauf_38"/>
    <linearGradient id="Unbenannter_Verlauf_38-9" data-name="Unbenannter Verlauf 38" x1="448.04" y1="-5.07" x2="490.75" y2="181.77" xlink:href="#Unbenannter_Verlauf_38"/>
    <linearGradient id="Unbenannter_Verlauf_38-10" data-name="Unbenannter Verlauf 38" x1="594.34" y1="-2.78" x2="639.6" y2="195.21" xlink:href="#Unbenannter_Verlauf_38"/>
    <linearGradient id="Unbenannter_Verlauf_38-11" data-name="Unbenannter Verlauf 38" x1="742.49" y1=".85" x2="785.42" y2="188.68" xlink:href="#Unbenannter_Verlauf_38"/>
  </defs>
  <g id="Ebene_1-2" data-name="Ebene 1">
    <g id="Hype_Beyond_Dark_Mode" data-name="Hype &amp;amp; Beyond Dark Mode">
      <g id="Beyond">
        <path class="cls-11" d="M123.53,291.48c-2.72-5.01-6.5-9.25-11.36-12.76-3.16-2.27-6.68-4.14-10.55-5.59,4.98-2.22,8.97-5.46,11.94-9.74,4.07-5.86,6.11-13.31,6.11-22.31,0-7.3-1.97-13.66-5.9-19.09-3.94-5.43-9.65-9.65-17.17-12.66-7.5-3.01-16.68-4.49-27.55-4.49H0v150.12h71.21c7.85,0,15.18-.92,21.98-2.79,6.8-1.85,12.79-4.71,18.02-8.57,5.21-3.86,9.25-8.68,12.11-14.48,2.87-5.79,4.29-12.63,4.29-20.49,0-6.43-1.35-12.14-4.07-17.15ZM42.89,241.3h17.8c5.16,0,8.83,1.04,11.06,3.11,2.2,2.07,3.32,4.76,3.32,8.05,0,2.42-.47,4.46-1.4,6.11-.92,1.64-2.42,2.89-4.49,3.74-2.09.87-4.76,1.29-8.05,1.29h-18.24v-22.29ZM81.06,312.82c-1,1.92-2.42,3.36-4.28,4.29-1.87.92-4.16,1.39-6.86,1.39h-27.04v-24.01h25.95c3.01,0,5.51.47,7.51,1.39,2,.94,3.54,2.22,4.61,3.86,1.07,1.65,1.6,3.69,1.6,6.11,0,2.72-.5,5.04-1.5,6.98Z"/>
        <polygon class="cls-8" points="269.37 317.43 269.37 354.96 153.34 354.96 153.34 204.84 265.51 204.84 265.51 242.37 197.74 242.37 197.74 261.45 257.58 261.45 257.58 296.62 197.74 296.62 197.74 317.43 269.37 317.43"/>
        <polygon class="cls-7" points="436.02 204.84 381.11 288.12 381.11 354.96 334.35 354.96 334.35 288.51 275.16 204.84 326.63 204.84 357.59 249.28 385.83 204.84 436.02 204.84"/>
        <path class="cls-10" d="M513.87,357.11c-11.87,0-22.73-1.93-32.6-5.79-9.86-3.86-18.44-9.29-25.74-16.3-7.29-7-12.9-15.3-16.84-24.88-3.93-9.58-5.9-20.02-5.9-31.31s1.96-21.91,5.9-31.42c3.93-9.51,9.54-17.76,16.84-24.77,7.29-7,15.87-12.44,25.74-16.3,9.87-3.86,20.66-5.79,32.39-5.79s22.7,1.93,32.49,5.79c9.79,3.86,18.34,9.3,25.63,16.3,7.29,7.01,12.9,15.26,16.84,24.77,3.93,9.51,5.9,19.91,5.9,31.21s-1.97,21.95-5.9,31.53c-3.93,9.58-9.54,17.87-16.84,24.88-7.29,7.01-15.84,12.44-25.63,16.3-9.79,3.86-20.56,5.79-32.28,5.79ZM513.65,314.21c4.86,0,9.33-.86,13.4-2.57,4.08-1.72,7.65-4.18,10.72-7.4,3.07-3.22,5.43-6.97,7.08-11.26,1.64-4.29,2.47-9.01,2.47-14.15s-.83-9.87-2.47-14.15c-1.65-4.29-4-8.04-7.08-11.26-3.08-3.22-6.65-5.68-10.72-7.4-4.07-1.72-8.55-2.57-13.4-2.57s-9.33.86-13.4,2.57c-4.08,1.72-7.65,4.18-10.72,7.4-3.08,3.22-5.44,6.97-7.08,11.26-1.64,4.29-2.47,9.01-2.47,14.15s.82,9.87,2.47,14.15c1.64,4.29,4,8.04,7.08,11.26,3.07,3.22,6.65,5.68,10.72,7.4,4.07,1.72,8.54,2.57,13.4,2.57Z"/>
        <path class="cls-9" d="M761.15,204.84v150.12h-41.82l-55.94-77.2c.07.67.13,1.3.18,1.94.28,3.29.53,6.53.75,9.75s.35,6.8.43,10.72c.07,3.94.1,8.55.1,13.83v40.96h-44.61v-150.12h41.38l57.65,79.66c-.1-.77-.18-1.52-.27-2.24-.5-4.29-.94-8.27-1.29-11.91-.37-3.64-.65-7.25-.87-10.84-.22-3.56-.32-7.5-.32-11.79v-42.89h44.61Z"/>
        <path class="cls-4" d="M933.47,249.66c-3.79-9.15-9.18-17.05-16.2-23.7-7-6.66-15.21-11.84-24.65-15.56-9.44-3.71-19.81-5.56-31.11-5.56h-66.05v150.12h66.05c11.31,0,21.68-1.85,31.11-5.58,9.44-3.71,17.65-8.9,24.65-15.55,7.01-6.65,12.41-14.58,16.2-23.8,3.79-9.22,5.68-19.27,5.68-30.14s-1.89-21.08-5.68-30.23ZM890.05,294.17c-1.59,4.36-3.79,8.12-6.66,11.26-2.86,3.14-6.21,5.61-10.07,7.4-3.86,1.79-8.15,2.67-12.88,2.67h-18.65v-71.19h18.65c4.73,0,9.02.89,12.88,2.67,3.86,1.79,7.21,4.26,10.07,7.4,2.87,3.16,5.08,6.9,6.66,11.26,1.57,4.38,2.35,9.12,2.35,14.26s-.78,9.9-2.35,14.28Z"/>
      </g>
      <g id="Hype_" data-name="Hype&amp;amp;">
        <path class="cls-3" d="M76.19,4.4h58.51v62.36h32.69V4.4h58.79v183.22h-58.79v-67.85h-32.69v67.85h-58.51V4.4ZM110.8,165.64v-69.5h80.76v69.5h7.14V26.37h-7.14v63.18h-80.76V26.37h-7.14v139.27h7.14Z"/>
        <path class="cls-6" d="M287.15,108.78L230.29,4.4h65.11l21.15,38.73,20.88-38.73h65.1l-56.86,104.39v78.84h-58.51v-78.84ZM320.12,165.64v-65.65l40.11-73.62h-8.51l-35.16,65.1-35.44-65.1h-8.24l39.83,73.62v65.65h7.42Z"/>
        <path class="cls-5" d="M549.21,74.17c0,12.64-2.2,23.4-6.59,32.28-4.4,8.88-10.4,16.07-17.99,21.56-7.6,5.49-16.48,9.52-26.65,12.09-10.16,2.57-21.11,3.85-32.83,3.85v43.68h-58.51V4.4h58.51c11.72,0,22.66,1.28,32.83,3.85,10.17,2.57,19.05,6.59,26.65,12.09,7.6,5.49,13.6,12.68,17.99,21.56,4.4,8.88,6.59,19.64,6.59,32.28ZM522.57,74.17c0-8.24-1.42-15.38-4.26-21.43-2.84-6.04-6.83-10.99-11.95-14.83-5.13-3.85-11.22-6.73-18.27-8.65-7.05-1.92-14.7-2.88-22.94-2.88h-31.04v139.27h7.14v-43.68h23.9c8.24,0,15.88-.96,22.94-2.88,7.05-1.92,13.14-4.81,18.27-8.65,5.12-3.85,9.11-8.79,11.95-14.83,2.84-6.04,4.26-13.19,4.26-21.43ZM514.87,74.17c0,7.88-1.37,14.47-4.12,19.78-2.75,5.31-6.41,9.52-10.99,12.64-4.58,3.12-9.85,5.36-15.79,6.73-5.95,1.37-12.22,2.06-18.82,2.06h-23.9V32.96h23.9c6.59,0,12.86.69,18.82,2.06,5.95,1.37,11.22,3.62,15.79,6.73,4.58,3.12,8.24,7.33,10.99,12.64,2.75,5.31,4.12,11.91,4.12,19.78ZM465.16,94.5h2.47c7.69,0,13.23-1.79,16.62-5.36,3.39-3.57,5.08-8.56,5.08-14.97s-1.7-11.4-5.08-14.97c-3.39-3.57-8.93-5.36-16.62-5.36h-2.47v40.66Z"/>
        <path class="cls-2" d="M562.94,4.4h107.96v48.07h-49.45v20.33h48.62v45.6h-48.62v21.15h51.37v48.07h-109.88V4.4ZM652.5,165.64v-6.59h-54.94v-60.16h52.19v-6.59h-52.19v-59.34h54.94v-6.59h-62.08v139.27h62.08Z"/>
        <path class="cls-1" d="M683.81,136.8c0-11.17,2.51-20.56,7.55-28.16,5.03-7.6,11.67-14.05,19.92-19.37-4.22-4.58-7.69-9.89-10.44-15.93-2.75-6.04-4.12-12.64-4.12-19.78,0-7.69,1.46-14.83,4.4-21.43,2.93-6.59,6.96-12.27,12.09-17.03,5.12-4.76,11.17-8.47,18.13-11.12,6.96-2.65,14.46-3.98,22.53-3.98,8.97,0,17.12,1.37,24.45,4.12,7.32,2.75,13.6,6.55,18.82,11.4,5.22,4.85,9.2,10.62,11.95,17.31,2.75,6.69,4.12,13.97,4.12,21.84,0,9.34-2.47,17.49-7.42,24.45-4.94,6.96-10.9,13.01-17.86,18.13l25,20.88c2.2-2.2,4.35-4.49,6.45-6.87,2.1-2.38,4.71-5.58,7.83-9.61l36.81,31.32c-4.03,5.49-8.34,10.71-12.91,15.66-4.58,4.94-9.52,9.61-14.83,14.01-4.58,3.67-9.66,7.28-15.25,10.85-5.59,3.57-11.72,6.73-18.4,9.48-6.69,2.75-13.87,4.99-21.56,6.73-7.69,1.74-15.84,2.61-24.45,2.61-12.64,0-23.53-1.42-32.69-4.26-9.16-2.84-16.71-6.73-22.66-11.67-5.95-4.94-10.35-10.8-13.19-17.58-2.84-6.77-4.26-14.1-4.26-21.98ZM799.46,129.93l-42.03-35.16c10.07-5.49,18.13-11.4,24.17-17.72,6.04-6.32,9.06-14.05,9.06-23.21,0-4.76-.96-9.15-2.88-13.19-1.92-4.03-4.53-7.46-7.83-10.3-3.3-2.84-7.19-5.03-11.67-6.59-4.49-1.55-9.3-2.34-14.42-2.34-4.4,0-8.7.78-12.91,2.34-4.22,1.56-7.97,3.76-11.26,6.59-3.3,2.84-5.91,6.28-7.83,10.3-1.92,4.03-2.88,8.52-2.88,13.46,0,6.78,1.83,12.77,5.49,17.99,3.66,5.22,8.6,10.4,14.83,15.52l6.87,5.77-6.59,3.3c-4.03,2.02-7.83,4.26-11.4,6.73-3.57,2.47-6.64,5.22-9.2,8.24-2.57,3.02-4.63,6.41-6.18,10.16-1.56,3.76-2.34,7.92-2.34,12.5,0,6.04,1.28,11.36,3.85,15.93,2.56,4.58,5.95,8.34,10.17,11.26,4.21,2.93,9.06,5.13,14.56,6.59,5.49,1.47,11.17,2.2,17.03,2.2,12.64,0,23.9-2.01,33.79-6.04,9.89-4.03,18.31-8.52,25.27-13.46,8.06-5.67,15.29-12.27,21.7-19.78l-5.22-3.57c-2.93,3.48-6.04,6.78-9.34,9.89-3.3,3.12-6.78,5.95-10.44,8.52-6.41,4.58-14.28,8.75-23.62,12.5-9.34,3.76-20.05,5.63-32.14,5.63-4.4,0-8.88-.5-13.46-1.51-4.58-1-8.75-2.65-12.5-4.94-3.76-2.29-6.87-5.36-9.34-9.2-2.47-3.85-3.71-8.52-3.71-14.01,0-7.87,2.29-14.24,6.87-19.09,4.57-4.85,10.99-9.29,19.23-13.32l8.24-4.12,42.85,35.71,5.22-3.57ZM783.52,53.84c0,8.79-2.75,15.8-8.24,21.01-5.49,5.22-13.19,10.4-23.07,15.52l-8.52-7.14c-7.33-6.04-12.09-11.31-14.28-15.79-2.2-4.49-3.3-8.83-3.3-13.05,0-7.69,2.56-14.01,7.69-18.95,5.12-4.94,11.81-7.42,20.05-7.42,3.66,0,7.28.55,10.85,1.65,3.57,1.1,6.73,2.75,9.48,4.94s4.99,4.9,6.73,8.1c1.74,3.21,2.61,6.91,2.61,11.12ZM757.98,145.86c2.75,0,5.54-.23,8.38-.69,2.84-.46,5.54-1.14,8.1-2.06l-26.65-22.53c-4.58,3.48-6.87,7.6-6.87,12.36,0,4.4,1.74,7.65,5.22,9.75,3.48,2.11,7.42,3.16,11.81,3.16ZM744.52,52.74c0,2.57.59,4.99,1.79,7.28,1.19,2.29,3.52,4.99,7,8.1,4.21-2.56,7.23-4.99,9.06-7.28,1.83-2.29,2.75-4.99,2.75-8.1,0-6.77-3.39-10.16-10.17-10.16-3.11,0-5.63.96-7.55,2.88-1.92,1.92-2.88,4.35-2.88,7.28Z"/>
      </g>
    </g>
  </g>
</svg>