<?xml version="1.0" encoding="UTF-8"?>
<svg id="Ebene_2" data-name="Ebene 2" xmlns="http://www.w3.org/2000/svg" xmlns:xlink="http://www.w3.org/1999/xlink" viewBox="0 0 1188.17 118.36">
  <defs>
    <style>
      .cls-1 {
        fill: url(#Unbenannter_Verlauf_38-11);
      }

      .cls-2 {
        fill: url(#Unbenannter_Verlauf_38-10);
      }

      .cls-3 {
        fill: url(#Unbenannter_Verlauf_38-7);
      }

      .cls-4 {
        fill: url(#Unbenannter_Verlauf_38-6);
      }

      .cls-5 {
        fill: url(#Unbenannter_Verlauf_38-9);
      }

      .cls-6 {
        fill: url(#Unbenannter_Verlauf_38-8);
      }

      .cls-7 {
        fill: url(#Unbenannter_Verlauf_38-3);
      }

      .cls-8 {
        fill: url(#Unbenannter_Verlauf_38-2);
      }

      .cls-9 {
        fill: url(#Unbenannter_Verlauf_38-5);
      }

      .cls-10 {
        fill: url(#Unbenannter_Verlauf_38-4);
      }

      .cls-11 {
        fill: url(#Unbenannter_Verlauf_38);
      }
    </style>
    <linearGradient id="Unbenannter_Verlauf_38" data-name="Unbenannter Verlauf 38" x1="515.5" y1="-3.12" x2="542.83" y2="116.43" gradientUnits="userSpaceOnUse">
      <stop offset="0" stop-color="#2d1e5d"/>
      <stop offset="1" stop-color="#1b537b"/>
    </linearGradient>
    <linearGradient id="Unbenannter_Verlauf_38-2" data-name="Unbenannter Verlauf 38" x1="629.78" y1="-3.1" x2="658.4" y2="122.07" xlink:href="#Unbenannter_Verlauf_38"/>
    <linearGradient id="Unbenannter_Verlauf_38-3" data-name="Unbenannter Verlauf 38" x1="750.04" y1="-9.82" x2="778.27" y2="113.72" xlink:href="#Unbenannter_Verlauf_38"/>
    <linearGradient id="Unbenannter_Verlauf_38-4" data-name="Unbenannter Verlauf 38" x1="857.81" y1="1.11" x2="883.99" y2="115.66" xlink:href="#Unbenannter_Verlauf_38"/>
    <linearGradient id="Unbenannter_Verlauf_38-5" data-name="Unbenannter Verlauf 38" x1="988.14" y1="-5.43" x2="1017.67" y2="123.78" xlink:href="#Unbenannter_Verlauf_38"/>
    <linearGradient id="Unbenannter_Verlauf_38-6" data-name="Unbenannter Verlauf 38" x1="1114.5" y1="-4.45" x2="1141.65" y2="114.35" xlink:href="#Unbenannter_Verlauf_38"/>
    <linearGradient id="Unbenannter_Verlauf_38-7" data-name="Unbenannter Verlauf 38" x1="31.5" y1="-4.06" x2="60.47" y2="122.7" xlink:href="#Unbenannter_Verlauf_38"/>
    <linearGradient id="Unbenannter_Verlauf_38-8" data-name="Unbenannter Verlauf 38" x1="144.69" y1="-8.33" x2="172.61" y2="113.82" xlink:href="#Unbenannter_Verlauf_38"/>
    <linearGradient id="Unbenannter_Verlauf_38-9" data-name="Unbenannter Verlauf 38" x1="228.03" y1="-2.66" x2="254.22" y2="111.91" xlink:href="#Unbenannter_Verlauf_38"/>
    <linearGradient id="Unbenannter_Verlauf_38-10" data-name="Unbenannter Verlauf 38" x1="317.75" y1="-1.26" x2="345.5" y2="120.16" xlink:href="#Unbenannter_Verlauf_38"/>
    <linearGradient id="Unbenannter_Verlauf_38-11" data-name="Unbenannter Verlauf 38" x1="408.59" y1=".97" x2="434.92" y2="116.15" xlink:href="#Unbenannter_Verlauf_38"/>
  </defs>
  <g id="Ebene_1-2" data-name="Ebene 1">
    <g id="Hype_Beyond_Horizontal_Dark_Mode" data-name="Hype &amp;amp; Beyond Horizontal Dark Mode">
      <g id="Beyond">
        <path class="cls-11" d="M579.97,67.81c-2.03-3.74-4.84-6.9-8.47-9.51-2.35-1.69-4.98-3.09-7.87-4.17,3.71-1.66,6.69-4.07,8.9-7.26,3.04-4.37,4.56-9.93,4.56-16.64,0-5.44-1.47-10.19-4.4-14.23-2.94-4.05-7.2-7.2-12.8-9.44-5.59-2.24-12.44-3.35-20.55-3.35h-51.49v111.94h53.1c5.85,0,11.32-.68,16.39-2.08,5.07-1.38,9.54-3.51,13.44-6.39,3.89-2.88,6.9-6.48,9.03-10.8,2.14-4.32,3.2-9.41,3.2-15.28,0-4.79-1.01-9.05-3.04-12.79ZM519.83,30.39h13.27c3.85,0,6.59.77,8.24,2.32,1.64,1.54,2.48,3.55,2.48,6,0,1.81-.35,3.32-1.05,4.56-.68,1.22-1.81,2.15-3.35,2.79-1.56.65-3.55.96-6,.96h-13.6v-16.62ZM548.3,83.73c-.75,1.43-1.81,2.5-3.19,3.2-1.39.68-3.1,1.03-5.12,1.03h-20.16v-17.91h19.35c2.24,0,4.11.35,5.6,1.03,1.49.7,2.64,1.66,3.44,2.88.8,1.23,1.2,2.75,1.2,4.56,0,2.03-.37,3.76-1.12,5.21Z"/>
        <polygon class="cls-8" points="688.72 87.16 688.72 115.14 602.2 115.14 602.2 3.2 685.84 3.2 685.84 31.19 635.31 31.19 635.31 45.42 679.93 45.42 679.93 71.65 635.31 71.65 635.31 87.16 688.72 87.16"/>
        <polygon class="cls-7" points="812.99 3.2 772.04 65.31 772.04 115.14 737.17 115.14 737.17 65.59 693.04 3.2 731.42 3.2 754.51 36.34 775.57 3.2 812.99 3.2"/>
        <path class="cls-10" d="M871.04,116.75c-8.85,0-16.95-1.44-24.31-4.32-7.36-2.88-13.75-6.93-19.19-12.16-5.44-5.22-9.62-11.41-12.55-18.55-2.93-7.14-4.4-14.93-4.4-23.35s1.46-16.34,4.4-23.43c2.93-7.09,7.12-13.25,12.55-18.47,5.44-5.22,11.84-9.28,19.19-12.15,7.36-2.88,15.41-4.32,24.15-4.32s16.92,1.44,24.23,4.32c7.3,2.88,13.67,6.93,19.11,12.15,5.44,5.23,9.62,11.38,12.55,18.47,2.93,7.09,4.4,14.85,4.4,23.27s-1.47,16.37-4.4,23.51c-2.93,7.14-7.12,13.33-12.55,18.55-5.44,5.23-11.81,9.28-19.11,12.16-7.3,2.88-15.33,4.32-24.07,4.32ZM870.88,84.76c3.62,0,6.96-.64,10-1.92,3.04-1.28,5.7-3.12,8-5.52,2.29-2.4,4.05-5.2,5.28-8.4,1.22-3.2,1.84-6.72,1.84-10.56s-.62-7.36-1.84-10.56c-1.23-3.2-2.99-6-5.28-8.4-2.29-2.4-4.96-4.24-8-5.52-3.04-1.28-6.37-1.92-10-1.92s-6.96.64-10,1.92c-3.04,1.28-5.7,3.12-8,5.52-2.29,2.4-4.05,5.2-5.28,8.4-1.23,3.2-1.84,6.72-1.84,10.56s.61,7.36,1.84,10.56c1.22,3.2,2.98,6,5.28,8.4,2.29,2.4,4.96,4.24,8,5.52,3.04,1.28,6.37,1.92,10,1.92Z"/>
        <path class="cls-9" d="M1055.43,3.2v111.94h-31.18l-41.72-57.57c.05.5.1.97.14,1.44.21,2.45.4,4.87.56,7.27.16,2.4.26,5.07.32,7.99.05,2.94.07,6.38.07,10.31v30.55h-33.26V3.2h30.86l42.99,59.4c-.07-.57-.14-1.13-.2-1.67-.37-3.2-.7-6.16-.96-8.88-.27-2.71-.49-5.4-.65-8.08-.16-2.65-.24-5.59-.24-8.79V3.2h33.26Z"/>
        <path class="cls-4" d="M1183.94,36.63c-2.83-6.82-6.85-12.71-12.08-17.67-5.22-4.97-11.34-8.83-18.38-11.61-7.04-2.76-14.77-4.15-23.2-4.15h-49.25v111.94h49.25c8.43,0,16.16-1.38,23.2-4.16,7.04-2.76,13.16-6.64,18.38-11.59,5.23-4.96,9.25-10.87,12.08-17.75,2.83-6.87,4.23-14.37,4.23-22.48s-1.41-15.72-4.23-22.54ZM1151.56,69.82c-1.18,3.25-2.83,6.05-4.97,8.39-2.13,2.34-4.63,4.18-7.51,5.52-2.88,1.33-6.08,1.99-9.6,1.99h-13.91v-53.09h13.91c3.52,0,6.72.66,9.6,1.99,2.88,1.33,5.38,3.18,7.51,5.52,2.14,2.35,3.79,5.14,4.97,8.39,1.17,3.26,1.76,6.8,1.76,10.63s-.59,7.38-1.76,10.65Z"/>
      </g>
      <g id="Hype_" data-name="Hype&amp;amp;">
        <path class="cls-3" d="M0,3.14h35.88v38.24h20.05V3.14h36.05v112.36h-36.05v-41.61h-20.05v41.61H0V3.14ZM21.22,102.02v-42.62h49.52v42.62h4.38V16.62h-4.38v38.74H21.22V16.62h-4.38v85.41h4.38Z"/>
        <path class="cls-6" d="M129.37,67.15L94.5,3.14h39.92l12.97,23.75,12.8-23.75h39.92l-34.87,64.01v48.35h-35.88v-48.35ZM149.58,102.02v-40.26l24.59-45.15h-5.22l-21.56,39.92-21.73-39.92h-5.05l24.42,45.15v40.26h4.55Z"/>
        <path class="cls-5" d="M290.07,45.93c0,7.75-1.35,14.35-4.04,19.79-2.7,5.45-6.38,9.85-11.03,13.22-4.66,3.37-10.11,5.84-16.34,7.41-6.23,1.57-12.94,2.36-20.13,2.36v26.78h-35.88V3.14h35.88c7.19,0,13.9.79,20.13,2.36,6.23,1.57,11.68,4.04,16.34,7.41,4.66,3.37,8.34,7.78,11.03,13.22,2.7,5.45,4.04,12.04,4.04,19.79ZM273.73,45.93c0-5.05-.87-9.43-2.61-13.14-1.74-3.71-4.19-6.74-7.33-9.1-3.15-2.36-6.88-4.13-11.2-5.31-4.33-1.18-9.01-1.77-14.07-1.77h-19.04v85.41h4.38v-26.78h14.66c5.05,0,9.74-.59,14.07-1.77,4.32-1.18,8.06-2.95,11.2-5.31,3.14-2.36,5.59-5.39,7.33-9.1,1.74-3.71,2.61-8.09,2.61-13.14ZM269.02,45.93c0,4.83-.84,8.87-2.53,12.13-1.69,3.26-3.93,5.84-6.74,7.75-2.81,1.91-6.04,3.28-9.69,4.13-3.65.84-7.5,1.26-11.54,1.26h-14.66V20.66h14.66c4.04,0,7.89.42,11.54,1.26,3.65.84,6.88,2.22,9.69,4.13,2.81,1.91,5.05,4.49,6.74,7.75,1.68,3.26,2.53,7.3,2.53,12.13ZM238.53,58.39h1.52c4.72,0,8.11-1.1,10.19-3.28,2.08-2.19,3.12-5.25,3.12-9.18s-1.04-6.99-3.12-9.18c-2.08-2.19-5.47-3.28-10.19-3.28h-1.52v24.93Z"/>
        <path class="cls-2" d="M298.49,3.14h66.2v29.48h-30.32v12.47h29.82v27.96h-29.82v12.97h31.5v29.48h-67.38V3.14ZM353.41,102.02v-4.04h-33.69v-36.89h32.01v-4.04h-32.01V20.66h33.69v-4.04h-38.07v85.41h38.07Z"/>
        <path class="cls-1" d="M372.61,84.34c0-6.85,1.54-12.6,4.63-17.27,3.09-4.66,7.16-8.62,12.21-11.88-2.59-2.81-4.72-6.06-6.4-9.77-1.69-3.71-2.53-7.75-2.53-12.13,0-4.72.9-9.1,2.7-13.14,1.8-4.04,4.27-7.52,7.41-10.44,3.14-2.92,6.85-5.19,11.12-6.82,4.27-1.63,8.87-2.44,13.81-2.44,5.5,0,10.5.84,14.99,2.53,4.49,1.68,8.34,4.02,11.54,6.99,3.2,2.98,5.64,6.51,7.33,10.61,1.68,4.1,2.53,8.56,2.53,13.39,0,5.73-1.52,10.73-4.55,14.99-3.03,4.27-6.68,7.98-10.95,11.12l15.33,12.8c1.35-1.35,2.67-2.75,3.96-4.21,1.29-1.46,2.89-3.42,4.8-5.9l22.57,19.2c-2.47,3.37-5.11,6.57-7.92,9.6-2.81,3.03-5.84,5.9-9.1,8.59-2.81,2.25-5.92,4.46-9.35,6.65-3.43,2.19-7.19,4.13-11.29,5.81-4.1,1.68-8.51,3.06-13.22,4.13-4.72,1.07-9.71,1.6-14.99,1.6-7.75,0-14.43-.87-20.05-2.61-5.62-1.74-10.25-4.13-13.9-7.16-3.65-3.03-6.35-6.62-8.09-10.78-1.74-4.15-2.61-8.65-2.61-13.48ZM443.53,80.12l-25.77-21.56c6.18-3.37,11.12-6.99,14.82-10.87,3.71-3.87,5.56-8.62,5.56-14.23,0-2.92-.59-5.61-1.77-8.09-1.18-2.47-2.78-4.57-4.8-6.32-2.02-1.74-4.41-3.09-7.16-4.04-2.75-.95-5.7-1.43-8.84-1.43-2.7,0-5.34.48-7.92,1.43-2.59.96-4.89,2.3-6.91,4.04-2.02,1.74-3.62,3.85-4.8,6.32-1.18,2.47-1.77,5.22-1.77,8.25,0,4.16,1.12,7.83,3.37,11.03,2.25,3.2,5.28,6.37,9.1,9.52l4.21,3.54-4.04,2.02c-2.47,1.24-4.8,2.61-6.99,4.13-2.19,1.52-4.07,3.2-5.64,5.05-1.57,1.85-2.84,3.93-3.79,6.23-.96,2.3-1.43,4.86-1.43,7.66,0,3.71.78,6.96,2.36,9.77,1.57,2.81,3.65,5.11,6.23,6.91,2.58,1.8,5.56,3.15,8.93,4.04,3.37.9,6.85,1.35,10.44,1.35,7.75,0,14.66-1.23,20.72-3.71,6.06-2.47,11.23-5.22,15.5-8.25,4.94-3.48,9.37-7.52,13.31-12.13l-3.2-2.19c-1.8,2.13-3.71,4.16-5.73,6.06-2.02,1.91-4.16,3.65-6.4,5.22-3.93,2.81-8.76,5.36-14.49,7.66-5.73,2.3-12.3,3.45-19.71,3.45-2.7,0-5.45-.31-8.25-.93-2.81-.62-5.36-1.63-7.66-3.03-2.3-1.4-4.21-3.28-5.73-5.64-1.52-2.36-2.27-5.22-2.27-8.59,0-4.83,1.4-8.73,4.21-11.71,2.81-2.97,6.74-5.7,11.79-8.17l5.05-2.53,26.28,21.9,3.2-2.19ZM433.76,33.46c0,5.39-1.68,9.69-5.05,12.89-3.37,3.2-8.09,6.37-14.15,9.52l-5.22-4.38c-4.49-3.71-7.41-6.93-8.76-9.69-1.35-2.75-2.02-5.42-2.02-8,0-4.72,1.57-8.59,4.72-11.62,3.14-3.03,7.24-4.55,12.3-4.55,2.25,0,4.46.34,6.65,1.01,2.19.67,4.13,1.68,5.81,3.03s3.06,3.01,4.13,4.97c1.07,1.97,1.6,4.24,1.6,6.82ZM418.09,89.89c1.69,0,3.4-.14,5.14-.42,1.74-.28,3.4-.7,4.97-1.26l-16.34-13.81c-2.81,2.13-4.21,4.66-4.21,7.58,0,2.7,1.07,4.69,3.2,5.98,2.13,1.29,4.55,1.94,7.24,1.94ZM409.84,32.79c0,1.57.36,3.06,1.1,4.46.73,1.41,2.16,3.06,4.3,4.97,2.58-1.57,4.43-3.06,5.56-4.46,1.12-1.4,1.69-3.06,1.69-4.97,0-4.15-2.08-6.23-6.23-6.23-1.91,0-3.45.59-4.63,1.77-1.18,1.18-1.77,2.67-1.77,4.46Z"/>
      </g>
    </g>
  </g>
</svg>