<?xml version="1.0" encoding="UTF-8"?>
<svg id="Ebene_2" data-name="Ebene 2" xmlns="http://www.w3.org/2000/svg" viewBox="0 0 1171.33 116.68">
  <defs>
    <style>
      .cls-1 {
        fill: #fff;
      }
    </style>
  </defs>
  <g id="Ebene_1-2" data-name="Ebene 1">
    <g id="Hype_Beyond_Horizontal_Light_Mode" data-name="Hype &amp;amp; Beyond Horizontal Light Mode">
      <g id="Beyond">
        <path class="cls-1" d="M571.74,66.85c-2-3.68-4.78-6.8-8.35-9.38-2.32-1.67-4.91-3.04-7.76-4.11,3.66-1.63,6.59-4.01,8.78-7.16,3-4.31,4.49-9.78,4.49-16.4,0-5.36-1.45-10.04-4.33-14.03-2.9-3.99-7.1-7.1-12.62-9.31-5.51-2.21-12.26-3.3-20.26-3.3h-50.76v110.35h52.35c5.77,0,11.16-.68,16.16-2.05,5-1.36,9.4-3.46,13.25-6.3,3.83-2.84,6.8-6.38,8.9-10.64,2.11-4.26,3.16-9.28,3.16-15.06,0-4.73-.99-8.92-3-12.61ZM512.46,29.96h13.09c3.79,0,6.49.76,8.13,2.28,1.62,1.52,2.44,3.5,2.44,5.92,0,1.78-.34,3.28-1.03,4.49-.68,1.2-1.78,2.12-3.3,2.75-1.53.64-3.5.95-5.92.95h-13.41v-16.39ZM540.53,82.54c-.74,1.41-1.78,2.47-3.14,3.16-1.37.68-3.06,1.02-5.05,1.02h-19.88v-17.65h19.08c2.21,0,4.05.34,5.52,1.02,1.47.69,2.6,1.63,3.39,2.84.79,1.22,1.18,2.71,1.18,4.49,0,2-.37,3.71-1.1,5.13Z"/>
        <polygon class="cls-1" points="678.95 85.93 678.95 113.51 593.66 113.51 593.66 3.16 676.12 3.16 676.12 30.74 626.3 30.74 626.3 44.78 670.29 44.78 670.29 70.63 626.3 70.63 626.3 85.93 678.95 85.93"/>
        <polygon class="cls-1" points="801.46 3.16 761.1 64.38 761.1 113.51 726.72 113.51 726.72 64.66 683.21 3.16 721.05 3.16 743.81 35.83 764.57 3.16 801.46 3.16"/>
        <path class="cls-1" d="M858.69,115.09c-8.73,0-16.71-1.42-23.96-4.26-7.25-2.84-13.56-6.83-18.92-11.98-5.36-5.15-9.49-11.25-12.38-18.29-2.89-7.04-4.34-14.71-4.34-23.02s1.44-16.11,4.34-23.1c2.89-6.99,7.02-13.06,12.38-18.21,5.36-5.15,11.67-9.14,18.92-11.98,7.25-2.84,15.19-4.26,23.81-4.26s16.68,1.42,23.89,4.26c7.2,2.84,13.48,6.83,18.84,11.98,5.36,5.15,9.48,11.22,12.38,18.21,2.89,6.99,4.34,14.64,4.34,22.94s-1.45,16.14-4.34,23.18c-2.89,7.04-7.02,13.14-12.38,18.29-5.36,5.15-11.64,9.14-18.84,11.98-7.2,2.84-15.11,4.26-23.73,4.26ZM858.53,83.56c3.57,0,6.86-.63,9.85-1.89,3-1.26,5.62-3.07,7.88-5.44,2.26-2.37,3.99-5.12,5.2-8.28,1.21-3.15,1.81-6.62,1.81-10.41s-.61-7.25-1.81-10.41c-1.21-3.15-2.94-5.91-5.2-8.28-2.26-2.37-4.89-4.18-7.88-5.44-2.99-1.26-6.28-1.89-9.85-1.89s-6.86.63-9.85,1.89c-3,1.26-5.62,3.07-7.88,5.44-2.26,2.36-4,5.12-5.2,8.28-1.21,3.15-1.81,6.62-1.81,10.41s.6,7.25,1.81,10.41c1.21,3.15,2.94,5.91,5.2,8.28,2.26,2.36,4.89,4.18,7.88,5.44,2.99,1.26,6.28,1.89,9.85,1.89Z"/>
        <path class="cls-1" d="M1040.47,3.16v110.35h-30.74l-41.13-56.75c.05.49.1.96.14,1.42.21,2.42.39,4.8.55,7.17.16,2.37.26,5,.32,7.88.05,2.9.07,6.29.07,10.16v30.11h-32.79V3.16h30.42l42.38,58.56c-.07-.56-.13-1.12-.2-1.65-.37-3.16-.69-6.08-.95-8.75-.27-2.68-.48-5.33-.64-7.97-.16-2.61-.23-5.51-.23-8.67V3.16h32.79Z"/>
        <path class="cls-1" d="M1167.15,36.11c-2.79-6.73-6.75-12.53-11.91-17.42-5.14-4.9-11.18-8.7-18.12-11.44-6.94-2.73-14.56-4.09-22.87-4.09h-48.55v110.35h48.55c8.31,0,15.93-1.36,22.87-4.1,6.94-2.73,12.98-6.54,18.12-11.43,5.16-4.89,9.12-10.72,11.91-17.49,2.79-6.78,4.17-14.17,4.17-22.16s-1.39-15.49-4.17-22.22ZM1135.23,68.83c-1.17,3.2-2.79,5.97-4.9,8.27-2.1,2.31-4.57,4.12-7.4,5.44-2.84,1.31-5.99,1.96-9.47,1.96h-13.71v-52.33h13.71c3.47,0,6.63.65,9.47,1.96,2.84,1.31,5.3,3.13,7.4,5.44,2.11,2.32,3.73,5.07,4.9,8.27,1.15,3.22,1.73,6.7,1.73,10.48s-.58,7.28-1.73,10.5Z"/>
      </g>
      <g id="Hype_" data-name="Hype&amp;amp;">
        <path class="cls-1" d="M0,3.1h35.37v37.7h19.76V3.1h35.54v110.76h-35.54v-41.02h-19.76v41.02H0V3.1ZM20.92,100.58v-42.01h48.82v42.01h4.32V16.38h-4.32v38.19H20.92V16.38h-4.32v84.19h4.32Z"/>
        <path class="cls-1" d="M127.54,66.2L93.16,3.1h39.36l12.79,23.42,12.62-23.42h39.36l-34.38,63.1v47.66h-35.37v-47.66ZM147.46,100.58v-39.69l24.25-44.51h-5.15l-21.26,39.36-21.42-39.36h-4.98l24.08,44.51v39.69h4.48Z"/>
        <path class="cls-1" d="M285.96,45.28c0,7.64-1.33,14.14-3.98,19.51-2.66,5.37-6.29,9.72-10.88,13.04-4.6,3.32-9.96,5.76-16.11,7.31-6.14,1.55-12.76,2.32-19.84,2.32v26.4h-35.37V3.1h35.37c7.08,0,13.7.78,19.84,2.32,6.15,1.55,11.51,3.99,16.11,7.31,4.59,3.32,8.22,7.67,10.88,13.04,2.66,5.37,3.98,11.87,3.98,19.51ZM269.85,45.28c0-4.98-.86-9.3-2.57-12.95-1.72-3.65-4.13-6.64-7.22-8.97-3.1-2.32-6.78-4.07-11.04-5.23-4.26-1.16-8.88-1.74-13.87-1.74h-18.77v84.19h4.32v-26.4h14.45c4.98,0,9.6-.58,13.87-1.74,4.26-1.16,7.94-2.91,11.04-5.23,3.1-2.32,5.51-5.31,7.22-8.97,1.72-3.65,2.57-7.97,2.57-12.95ZM265.2,45.28c0,4.76-.83,8.75-2.49,11.96-1.66,3.21-3.88,5.76-6.64,7.64-2.77,1.88-5.95,3.24-9.55,4.07-3.6.83-7.39,1.25-11.38,1.25h-14.45V20.37h14.45c3.98,0,7.78.42,11.38,1.25,3.6.83,6.78,2.19,9.55,4.07,2.77,1.88,4.98,4.43,6.64,7.64,1.66,3.21,2.49,7.2,2.49,11.96ZM235.14,57.57h1.49c4.65,0,8-1.08,10.05-3.24,2.05-2.16,3.07-5.17,3.07-9.05s-1.03-6.89-3.07-9.05c-2.05-2.16-5.4-3.24-10.05-3.24h-1.49v24.58Z"/>
        <path class="cls-1" d="M294.26,3.1h65.26v29.06h-29.89v12.29h29.39v27.57h-29.39v12.79h31.05v29.06h-66.43V3.1ZM348.4,100.58v-3.99h-33.21v-36.37h31.55v-3.99h-31.55V20.37h33.21v-3.99h-37.53v84.19h37.53Z"/>
        <path class="cls-1" d="M367.33,83.14c0-6.75,1.52-12.43,4.57-17.02,3.04-4.59,7.06-8.49,12.04-11.71-2.55-2.77-4.65-5.98-6.31-9.63-1.66-3.65-2.49-7.64-2.49-11.96,0-4.65.89-8.97,2.66-12.95,1.77-3.99,4.21-7.42,7.31-10.3,3.1-2.88,6.75-5.12,10.96-6.73,4.21-1.6,8.74-2.41,13.62-2.41,5.42,0,10.35.83,14.78,2.49,4.43,1.66,8.22,3.96,11.38,6.89,3.15,2.93,5.56,6.42,7.22,10.46,1.66,4.04,2.49,8.44,2.49,13.2,0,5.65-1.49,10.57-4.48,14.78-2.99,4.21-6.59,7.86-10.79,10.96l15.11,12.62c1.33-1.33,2.63-2.71,3.9-4.15,1.27-1.44,2.85-3.38,4.73-5.81l22.25,18.93c-2.44,3.32-5.04,6.48-7.81,9.47-2.77,2.99-5.76,5.81-8.97,8.47-2.77,2.22-5.84,4.4-9.22,6.56-3.38,2.16-7.09,4.07-11.13,5.73-4.04,1.66-8.39,3.02-13.04,4.07-4.65,1.05-9.58,1.58-14.78,1.58-7.64,0-14.23-.86-19.76-2.57-5.54-1.71-10.1-4.07-13.7-7.06-3.6-2.99-6.26-6.53-7.97-10.63-1.72-4.09-2.57-8.52-2.57-13.29ZM437.24,78.99l-25.41-21.26c6.09-3.32,10.96-6.89,14.61-10.71,3.65-3.82,5.48-8.49,5.48-14.03,0-2.88-.58-5.53-1.74-7.97-1.16-2.43-2.74-4.51-4.73-6.23-1.99-1.71-4.35-3.04-7.06-3.99-2.71-.94-5.62-1.41-8.72-1.41-2.66,0-5.26.47-7.81,1.41-2.55.94-4.82,2.27-6.81,3.99-1.99,1.72-3.57,3.79-4.73,6.23-1.16,2.44-1.74,5.15-1.74,8.14,0,4.1,1.11,7.72,3.32,10.88,2.21,3.15,5.2,6.28,8.97,9.38l4.15,3.49-3.98,1.99c-2.44,1.22-4.73,2.57-6.89,4.07-2.16,1.49-4.01,3.15-5.56,4.98-1.55,1.83-2.8,3.88-3.74,6.14-.94,2.27-1.41,4.79-1.41,7.56,0,3.65.77,6.87,2.32,9.63,1.55,2.77,3.6,5.04,6.15,6.81,2.54,1.77,5.48,3.1,8.8,3.99,3.32.89,6.75,1.33,10.3,1.33,7.64,0,14.45-1.22,20.43-3.65,5.98-2.43,11.07-5.15,15.28-8.14,4.87-3.43,9.24-7.42,13.12-11.96l-3.15-2.16c-1.77,2.1-3.65,4.1-5.65,5.98-1.99,1.88-4.1,3.6-6.31,5.15-3.88,2.77-8.64,5.29-14.28,7.56-5.65,2.27-12.12,3.4-19.43,3.4-2.66,0-5.37-.3-8.14-.91-2.77-.61-5.29-1.6-7.56-2.99-2.27-1.38-4.15-3.24-5.65-5.56-1.49-2.32-2.24-5.15-2.24-8.47,0-4.76,1.38-8.61,4.15-11.54,2.77-2.93,6.64-5.62,11.62-8.05l4.98-2.49,25.91,21.59,3.16-2.16ZM427.61,32.99c0,5.31-1.66,9.55-4.98,12.7-3.32,3.16-7.97,6.28-13.95,9.38l-5.15-4.32c-4.43-3.65-7.31-6.83-8.63-9.55-1.33-2.71-1.99-5.34-1.99-7.89,0-4.65,1.55-8.47,4.65-11.46,3.1-2.99,7.14-4.48,12.12-4.48,2.21,0,4.4.33,6.56,1,2.16.66,4.07,1.66,5.73,2.99s3.01,2.96,4.07,4.9c1.05,1.94,1.58,4.18,1.58,6.73ZM412.16,88.62c1.66,0,3.35-.14,5.07-.42,1.71-.28,3.35-.69,4.9-1.25l-16.11-13.62c-2.77,2.1-4.15,4.6-4.15,7.47,0,2.66,1.05,4.62,3.15,5.9,2.1,1.27,4.48,1.91,7.14,1.91ZM404.03,32.32c0,1.55.36,3.02,1.08,4.4.72,1.39,2.13,3.02,4.23,4.9,2.55-1.55,4.37-3.02,5.48-4.4,1.11-1.38,1.66-3.02,1.66-4.9,0-4.09-2.05-6.14-6.15-6.14-1.88,0-3.4.58-4.57,1.74-1.16,1.16-1.74,2.63-1.74,4.4Z"/>
      </g>
    </g>
  </g>
</svg>