<?xml version="1.0" encoding="UTF-8"?>
<svg id="Ebene_2" data-name="Ebene 2" xmlns="http://www.w3.org/2000/svg" xmlns:xlink="http://www.w3.org/1999/xlink" viewBox="0 0 203.77 212.29">
  <defs>
    <style>
      .cls-1 {
        fill: #fff;
      }

      .cls-2 {
        fill: url(#Unbenannter_Verlauf_38);
      }
    </style>
    <linearGradient id="Unbenannter_Verlauf_38" data-name="Unbenannter Verlauf 38" x1="68.44" y1="5.78" x2="113.6" y2="203.36" gradientUnits="userSpaceOnUse">
      <stop offset="0" stop-color="#2d1e5d"/>
      <stop offset="1" stop-color="#1b537b"/>
    </linearGradient>
  </defs>
  <g id="Ebene_1-2" data-name="Ebene 1">
    <g>
      <path class="cls-2" d="M82.79,207.29c-13.08,0-24.57-1.51-34.17-4.48-9.74-3.02-17.95-7.26-24.38-12.6-6.55-5.44-11.46-12-14.6-19.49-3.08-7.35-4.64-15.39-4.64-23.91,0-12.12,2.82-22.53,8.39-30.92,4.41-6.66,10.03-12.56,16.74-17.59-2.96-3.89-5.53-8.2-7.65-12.88-3.03-6.67-4.57-14.02-4.57-21.85,0-8.36,1.62-16.25,4.83-23.46,3.19-7.17,7.64-13.45,13.25-18.66,5.57-5.18,12.22-9.26,19.75-12.13,7.5-2.86,15.68-4.31,24.31-4.31,9.53,0,18.35,1.49,26.2,4.44,7.9,2.96,14.78,7.14,20.46,12.42,5.73,5.33,10.16,11.74,13.17,19.07,2.98,7.26,4.5,15.25,4.5,23.74,0,10.36-2.81,19.56-8.34,27.34-4.02,5.66-8.72,10.79-14.02,15.33l16.73,13.97c1.03-1.1,2.06-2.23,3.07-3.37,2.01-2.27,4.57-5.42,7.62-9.36l3.2-4.15,44.34,37.73-2.75,3.75c-4.12,5.62-8.59,11.04-13.27,16.1-4.71,5.08-9.86,9.95-15.31,14.47-4.74,3.8-10.02,7.55-15.74,11.21-5.81,3.72-12.27,7.04-19.2,9.89-6.9,2.84-14.43,5.18-22.36,6.98-8.03,1.81-16.63,2.73-25.55,2.73ZM74.18,137.29c-1.78,2.24-2.05,4.22-2.05,5.66,0,3.33,1.42,4.63,2.8,5.47,2.71,1.64,5.72,2.44,9.23,2.44,1.85,0,3.75-.12,5.66-.35l-15.64-13.22ZM81.15,57.58c-2.33,0-3.41.81-4.02,1.42-.98.98-1.42,2.14-1.42,3.74,0,1.77.4,3.4,1.22,4.97.44.86,1.34,2.17,3.16,4.06,2.48-1.76,3.84-3.13,4.58-4.05,1.13-1.41,1.65-2.99,1.65-4.98,0-4.01-1.16-5.16-5.17-5.16Z"/>
      <path class="cls-1" d="M80.05,10c8.97,0,17.12,1.37,24.45,4.12,7.32,2.75,13.6,6.55,18.82,11.4,5.22,4.85,9.2,10.62,11.95,17.31,2.75,6.69,4.12,13.97,4.12,21.84,0,9.34-2.47,17.49-7.42,24.45-4.94,6.96-10.9,13.01-17.86,18.13l25,20.88c2.2-2.2,4.35-4.49,6.45-6.87,2.1-2.38,4.71-5.58,7.83-9.61l36.81,31.32c-4.03,5.49-8.34,10.71-12.91,15.66-4.58,4.94-9.52,9.61-14.83,14.01-4.58,3.67-9.66,7.28-15.25,10.85-5.59,3.57-11.72,6.73-18.4,9.48-6.69,2.75-13.87,4.99-21.56,6.73-7.69,1.74-15.84,2.61-24.45,2.61-12.64,0-23.53-1.42-32.69-4.26-9.16-2.84-16.71-6.73-22.66-11.67-5.95-4.94-10.35-10.8-13.19-17.58-2.84-6.77-4.26-14.1-4.26-21.98,0-11.17,2.51-20.56,7.55-28.16,5.03-7.6,11.67-14.05,19.92-19.37-4.22-4.58-7.69-9.89-10.44-15.93-2.75-6.04-4.12-12.64-4.12-19.78,0-7.69,1.46-14.83,4.4-21.43,2.93-6.59,6.96-12.27,12.09-17.03,5.12-4.76,11.17-8.47,18.13-11.12,6.96-2.65,14.46-3.98,22.53-3.98M82.24,180.31c12.64,0,23.9-2.01,33.79-6.04,9.89-4.03,18.31-8.52,25.27-13.46,8.06-5.67,15.29-12.27,21.7-19.78l-5.22-3.57c-2.93,3.48-6.04,6.78-9.34,9.89-3.3,3.12-6.78,5.95-10.44,8.52-6.41,4.58-14.28,8.75-23.62,12.5-9.34,3.76-20.05,5.63-32.14,5.63-4.4,0-8.88-.5-13.46-1.51-4.58-1-8.75-2.65-12.5-4.94-3.76-2.29-6.87-5.36-9.34-9.2-2.47-3.85-3.71-8.52-3.71-14.01,0-7.87,2.29-14.24,6.87-19.09,4.57-4.85,10.99-9.29,19.23-13.32l8.24-4.12,42.85,35.71,5.22-3.57-42.03-35.16c10.07-5.49,18.13-11.4,24.17-17.72,6.04-6.32,9.06-14.05,9.06-23.21,0-4.76-.96-9.15-2.88-13.19-1.92-4.03-4.53-7.46-7.83-10.3-3.3-2.84-7.19-5.03-11.67-6.59-4.49-1.55-9.3-2.34-14.42-2.34-4.4,0-8.7.78-12.91,2.34-4.22,1.56-7.97,3.76-11.26,6.59-3.3,2.84-5.91,6.28-7.83,10.3-1.92,4.03-2.88,8.52-2.88,13.46,0,6.78,1.83,12.77,5.49,17.99,3.66,5.22,8.6,10.4,14.83,15.52l6.87,5.77-6.59,3.3c-4.03,2.02-7.83,4.26-11.4,6.73-3.57,2.47-6.64,5.22-9.2,8.24-2.57,3.02-4.63,6.41-6.18,10.16-1.56,3.76-2.34,7.92-2.34,12.5,0,6.04,1.28,11.36,3.85,15.93,2.56,4.58,5.95,8.34,10.17,11.26,4.21,2.93,9.06,5.13,14.56,6.59,5.49,1.47,11.17,2.2,17.03,2.2M84.17,155.86c2.75,0,5.54-.23,8.38-.69,2.84-.46,5.54-1.14,8.1-2.06l-26.65-22.53c-4.58,3.48-6.87,7.6-6.87,12.36,0,4.4,1.74,7.65,5.22,9.75,3.48,2.11,7.42,3.16,11.81,3.16M80.05,38.02c3.66,0,7.28.55,10.85,1.65,3.57,1.1,6.73,2.75,9.48,4.94,2.75,2.2,4.99,4.9,6.73,8.1,1.74,3.21,2.61,6.91,2.61,11.12,0,8.79-2.75,15.8-8.24,21.01-5.49,5.22-13.19,10.4-23.07,15.52l-8.52-7.14c-7.33-6.04-12.09-11.31-14.28-15.79-2.2-4.49-3.3-8.83-3.3-13.05,0-7.69,2.56-14.01,7.69-18.95,5.12-4.94,11.81-7.42,20.05-7.42M79.5,78.13c4.21-2.56,7.23-4.99,9.06-7.28,1.83-2.29,2.75-4.99,2.75-8.1,0-6.77-3.39-10.16-10.17-10.16-3.11,0-5.63.96-7.55,2.88-1.92,1.92-2.88,4.35-2.88,7.28,0,2.57.59,4.99,1.79,7.28,1.19,2.29,3.52,4.99,7,8.1M80.05,0c-9.24,0-18.01,1.56-26.09,4.64-8.14,3.11-15.33,7.53-21.37,13.14-6.11,5.67-10.96,12.5-14.42,20.3-3.49,7.84-5.26,16.42-5.26,25.48,0,8.55,1.69,16.59,5.02,23.92,1.58,3.47,3.38,6.76,5.4,9.84-5.51,4.67-10.24,9.96-14.11,15.8C3.1,122.35,0,133.68,0,146.8c0,9.18,1.69,17.88,5.03,25.84,3.45,8.24,8.84,15.44,16.02,21.4,6.94,5.77,15.72,10.32,26.1,13.53,10.07,3.12,22.07,4.71,35.65,4.71,9.3,0,18.27-.96,26.65-2.86,8.21-1.86,16-4.29,23.16-7.23,7.2-2.96,13.92-6.43,19.99-10.3,5.88-3.76,11.3-7.62,16.11-11.47l.06-.05.06-.05c5.62-4.65,10.94-9.67,15.79-14.92,4.82-5.2,9.4-10.77,13.64-16.54l5.51-7.5-7.09-6.03-36.81-31.32-7.98-6.79-6.41,8.29c-2.88,3.72-5.3,6.7-7.21,8.88l-8.66-7.23c3.87-3.77,7.38-7.87,10.5-12.26,6.15-8.65,9.26-18.82,9.26-30.24,0-9.14-1.64-17.77-4.87-25.64-3.29-8-8.13-15.01-14.39-20.83-6.16-5.73-13.6-10.25-22.11-13.44-8.42-3.16-17.83-4.76-27.96-4.76h0ZM80.71,62.6c.1-.01.25-.02.43-.02.06,0,.11,0,.16,0,0,.05,0,.11,0,.16,0,.83-.17,1.29-.38,1.61-.15-.52-.23-1.04-.23-1.61,0-.05,0-.1,0-.14h0Z"/>
    </g>
  </g>
</svg>